<svg width="16" height="16" viewBox="0 0 16 16" fill="none" xmlns="http://www.w3.org/2000/svg">
<path d="M15.1103 11.9627C15.0153 11.5099 14.7176 11.1046 14.2901 10.8513C13.4984 10.3857 12.6783 9.93608 11.8866 9.50225L11.3451 9.20458C10.6548 8.82775 10.1829 8.89741 9.90745 9.02408C9.64461 9.14442 9.29945 9.43257 9.15061 10.1261C9.14744 10.1356 9.14427 10.1482 9.14427 10.1609C9.09678 10.3414 8.96377 10.4143 8.88777 10.4427C8.71361 10.5029 8.50779 10.4617 8.33677 10.3287C7.01628 9.29007 5.87312 8.15008 4.84078 6.84858C4.70779 6.68391 4.66662 6.48124 4.72994 6.30708C4.75845 6.22791 4.83761 6.08541 5.05928 6.03792C5.06877 6.03475 5.08145 6.03475 5.09094 6.03158C5.79395 5.87641 6.07262 5.51541 6.18661 5.23991C6.31012 4.92958 6.35127 4.39759 5.84144 3.63124C5.45829 3.05807 5.13845 2.43108 4.8281 1.82308C4.68562 1.54759 4.54628 1.27209 4.40061 0.999739C4.10928 0.461402 3.71977 0.125736 3.27645 0.02757C2.87427 -0.0579168 2.44995 0.0560785 2.04778 0.360086C1.64878 0.664073 1.2276 0.999739 0.82862 1.38608C-0.0295537 2.22209 -0.225886 3.27974 0.261774 4.4419C2.32962 9.39141 5.89212 12.9286 10.8543 14.9584C11.2406 15.1199 11.6206 15.1991 11.9816 15.1991C12.6339 15.1991 13.2324 14.9394 13.7518 14.4264C14.1729 14.0116 14.5435 13.5334 14.8601 13.1122C15.1039 12.7797 15.1926 12.3713 15.1103 11.9627Z" fill="white"/>
</svg>
