<svg width="27" height="24" viewBox="0 0 27 24" fill="none" xmlns="http://www.w3.org/2000/svg">
<path d="M14.0595 10.9828H12.503V14.061H14.0595V10.9828Z" fill="white"/>
<path d="M15.616 14.0609H17.1724V8.79806L13.2813 6.36273L9.39018 8.79806V14.0609H10.9466V10.2046C10.9466 9.77448 11.2953 9.42635 11.7249 9.42635H14.8378C15.2674 9.42635 15.616 9.77448 15.616 10.2046V14.0609Z" fill="white"/>
<path d="M1.78056 19.5761H3.56114C4.42082 19.5761 5.11759 18.8794 5.11759 18.0197V3.16333H21.4458V18.0197C21.4458 18.8794 22.1426 19.5761 23.0023 19.5761H24.7829C25.7785 19.5761 26.5826 20.3917 26.5629 21.393C26.5437 22.3674 25.725 23.1373 24.7502 23.1373H1.81324C0.838385 23.1373 0.0196896 22.3674 0.000494003 21.393C-0.0192223 20.3917 0.784945 19.5761 1.78056 19.5761ZM19.8754 8.65346L13.6947 4.78515C13.469 4.64404 13.1733 4.6238 12.9216 4.75558C12.8698 4.78256 13.1338 4.61913 6.68805 8.65346C6.32384 8.88174 6.21334 9.36164 6.44161 9.72637C6.66922 10.0902 7.15011 10.2011 7.51401 9.97281L7.83412 9.77255V14.8393C7.83412 15.2689 8.18277 15.6175 8.61235 15.6175H17.9511C18.3806 15.6175 18.7293 15.2689 18.7293 14.8393V9.77255C19.0553 9.97655 19.1901 10.0916 19.4613 10.0916C19.7208 10.0916 19.9745 9.96192 20.1218 9.72637C20.3501 9.36164 20.2396 8.88174 19.8754 8.65346ZM6.4494 19.5351L6.45251 19.5383C6.45251 19.5383 6.45303 19.5393 6.45407 19.5398L6.4551 19.5408C6.47741 19.5637 6.64447 19.7307 7.61933 20.7056C7.92201 21.0083 8.41556 21.0103 8.72026 20.7056C8.97448 20.4514 9.01495 20.0654 8.84374 19.7681H17.7197C17.5485 20.0654 17.5889 20.4514 17.8431 20.7056C18.1458 21.0083 18.6394 21.0103 18.9441 20.7056L20.1099 19.5398C20.4118 19.2379 20.4144 18.7439 20.1099 18.4394L18.9441 17.2736C18.6401 16.9696 18.1472 16.9696 17.8431 17.2736C17.5889 17.5278 17.5474 17.9138 17.7186 18.2116H8.84478C9.01599 17.9138 8.97448 17.5278 8.72026 17.2736C8.41623 16.9696 7.92336 16.9696 7.61933 17.2736L6.45355 18.4394C6.15263 18.7403 6.15004 19.2311 6.4494 19.5351Z" fill="white"/>
<path d="M1.7806 6.10352e-05H2.72537C3.18711 6.10352e-05 3.56118 0.374129 3.56118 0.835876V18.0196H1.7806C1.12637 18.0196 0.515722 18.209 1.71661e-05 18.5359V1.78064C1.71661e-05 0.797484 0.79744 6.10352e-05 1.7806 6.10352e-05Z" fill="white"/>
<path d="M23.002 18.0196V0.835815C23.002 0.374068 23.3761 0 23.8378 0H24.7826C25.7658 0 26.5632 0.797422 26.5632 1.78058V18.5358C26.0475 18.2089 25.4368 18.0196 24.7826 18.0196H23.002Z" fill="white"/>
</svg>
